<svg width="43" height="42" viewBox="0 0 43 42" fill="none" xmlns="http://www.w3.org/2000/svg">
<g clip-path="url(#clip0)">
<path d="M0.5 12C0.5 5.37258 5.87258 0 12.5 0H30.5C37.1274 0 42.5 5.37258 42.5 12V30C42.5 36.6274 37.1274 42 30.5 42H12.5C5.87258 42 0.5 36.6274 0.5 30V12Z" fill="#1A2151"/>
<path d="M21.1242 33.5887C21.5044 32.8991 22.4956 32.8991 22.8758 33.5887L24.6821 36.8657C24.9472 37.3466 25.5506 37.5238 26.0336 37.2625L29.3249 35.4824C30.0176 35.1077 30.8514 35.6436 30.7984 36.4293L30.5463 40.1627C30.5093 40.7106 30.9211 41.1858 31.4687 41.2272L35.2 41.509C35.9852 41.5683 36.397 42.4699 35.9276 43.1023L33.6971 46.1067C33.3698 46.5476 33.4593 47.17 33.8976 47.5009L36.8841 49.7552C37.5127 50.2297 37.3716 51.2108 36.6349 51.4889L33.1342 52.8106C32.6204 53.0045 32.3592 53.5765 32.549 54.0918L33.8427 57.603C34.1149 58.3419 33.4659 59.091 32.6957 58.9267L29.0362 58.1459C28.4991 58.0313 27.9701 58.3712 27.8512 58.9074L27.0413 62.5605C26.8708 63.3294 25.9198 63.6086 25.3607 63.054L22.7043 60.4187C22.3144 60.0319 21.6856 60.0319 21.2957 60.4187L18.6393 63.054C18.0802 63.6086 17.1292 63.3294 16.9587 62.5605L16.1488 58.9074C16.0299 58.3712 15.5009 58.0313 14.9638 58.1459L11.3043 58.9267C10.5341 59.091 9.88505 58.3419 10.1573 57.603L11.451 54.0918C11.6408 53.5765 11.3796 53.0045 10.8658 52.8106L7.36514 51.4889C6.62838 51.2108 6.48732 50.2297 7.11587 49.7552L10.1024 47.5009C10.5407 47.17 10.6302 46.5476 10.3029 46.1067L8.07243 43.1023C7.60301 42.4699 8.01476 41.5683 8.80003 41.509L12.5313 41.2272C13.0789 41.1858 13.4907 40.7106 13.4537 40.1627L13.2016 36.4293C13.1486 35.6436 13.9824 35.1077 14.6751 35.4824L17.9664 37.2625C18.4494 37.5238 19.0528 37.3466 19.3179 36.8657L21.1242 33.5887Z" fill="url(#paint0_linear)"/>
<path d="M21.1242 -22.4113C21.5044 -23.1009 22.4956 -23.1009 22.8758 -22.4113L24.6821 -19.1343C24.9472 -18.6534 25.5506 -18.4762 26.0336 -18.7375L29.3249 -20.5176C30.0176 -20.8923 30.8514 -20.3564 30.7984 -19.5707L30.5463 -15.8373C30.5093 -15.2894 30.9211 -14.8142 31.4687 -14.7728L35.2 -14.491C35.9852 -14.4317 36.397 -13.5301 35.9276 -12.8977L33.6971 -9.89332C33.3698 -9.45237 33.4593 -8.82995 33.8976 -8.49909L36.8841 -6.24475C37.5127 -5.7703 37.3716 -4.78921 36.6349 -4.51106L33.1342 -3.18944C32.6204 -2.99547 32.3592 -2.42347 32.549 -1.90816L33.8427 1.60295C34.1149 2.3419 33.4659 3.09099 32.6957 2.92666L29.0362 2.14587C28.4991 2.03128 27.9701 2.37124 27.8512 2.9074L27.0413 6.56053C26.8708 7.32937 25.9198 7.60862 25.3607 7.05399L22.7043 4.41868C22.3144 4.03191 21.6856 4.03191 21.2957 4.41868L18.6393 7.05399C18.0802 7.60862 17.1292 7.32937 16.9587 6.56053L16.1488 2.90739C16.0299 2.37124 15.5009 2.03128 14.9638 2.14587L11.3043 2.92666C10.5341 3.09099 9.88505 2.3419 10.1573 1.60295L11.451 -1.90816C11.6408 -2.42347 11.3796 -2.99547 10.8658 -3.18944L7.36514 -4.51106C6.62838 -4.78921 6.48732 -5.7703 7.11587 -6.24475L10.1024 -8.49909C10.5407 -8.82995 10.6302 -9.45237 10.3029 -9.89332L8.07243 -12.8977C7.60301 -13.5301 8.01476 -14.4317 8.80003 -14.491L12.5313 -14.7728C13.0789 -14.8142 13.4907 -15.2894 13.4537 -15.8373L13.2016 -19.5707C13.1486 -20.3564 13.9824 -20.8923 14.6751 -20.5176L17.9664 -18.7375C18.4494 -18.4762 19.0528 -18.6534 19.3179 -19.1343L21.1242 -22.4113Z" fill="url(#paint1_linear)"/>
<path d="M21.1242 5.58873C21.5044 4.89906 22.4956 4.89906 22.8758 5.58873L24.6821 8.86569C24.9472 9.34663 25.5506 9.52379 26.0336 9.26253L29.3249 7.48237C30.0176 7.10772 30.8514 7.64359 30.7984 8.42931L30.5463 12.1627C30.5093 12.7106 30.9211 13.1858 31.4687 13.2272L35.2 13.509C35.9852 13.5683 36.397 14.4699 35.9276 15.1023L33.6971 18.1067C33.3698 18.5476 33.4593 19.17 33.8976 19.5009L36.8841 21.7552C37.5127 22.2297 37.3716 23.2108 36.6349 23.4889L33.1342 24.8106C32.6204 25.0045 32.3592 25.5765 32.549 26.0918L33.8427 29.603C34.1149 30.3419 33.4659 31.091 32.6957 30.9267L29.0362 30.1459C28.4991 30.0313 27.9701 30.3712 27.8512 30.9074L27.0413 34.5605C26.8708 35.3294 25.9198 35.6086 25.3607 35.054L22.7043 32.4187C22.3144 32.0319 21.6856 32.0319 21.2957 32.4187L18.6393 35.054C18.0802 35.6086 17.1292 35.3294 16.9587 34.5605L16.1488 30.9074C16.0299 30.3712 15.5009 30.0313 14.9638 30.1459L11.3043 30.9267C10.5341 31.091 9.88505 30.3419 10.1573 29.603L11.451 26.0918C11.6408 25.5765 11.3796 25.0045 10.8658 24.8106L7.36514 23.4889C6.62838 23.2108 6.48732 22.2297 7.11587 21.7552L10.1024 19.5009C10.5407 19.17 10.6302 18.5476 10.3029 18.1067L8.07243 15.1023C7.60301 14.4699 8.01476 13.5683 8.80003 13.509L12.5313 13.2272C13.0789 13.1858 13.4907 12.7106 13.4537 12.1627L13.2016 8.42931C13.1486 7.64359 13.9824 7.10772 14.6751 7.48237L17.9664 9.26253C18.4494 9.52379 19.0528 9.34663 19.3179 8.86569L21.1242 5.58873Z" fill="white"/>
<circle cx="22.5" cy="20" r="6" fill="url(#paint2_linear)"/>
</g>
<defs>
<linearGradient id="paint0_linear" x1="29.6315" y1="37.5204" x2="13.0312" y2="66.6438" gradientUnits="userSpaceOnUse">
<stop stop-color="#40C9FF"/>
<stop offset="1" stop-color="#E81CFF"/>
</linearGradient>
<linearGradient id="paint1_linear" x1="29.6315" y1="-18.4796" x2="13.0312" y2="10.6438" gradientUnits="userSpaceOnUse">
<stop stop-color="#40C9FF"/>
<stop offset="1" stop-color="#E81CFF"/>
</linearGradient>
<linearGradient id="paint2_linear" x1="25.2751" y1="16.0074" x2="19.2386" y2="26.5977" gradientUnits="userSpaceOnUse">
<stop stop-color="#40C9FF"/>
<stop offset="1" stop-color="#E81CFF"/>
</linearGradient>
<clipPath id="clip0">
<path d="M0.5 12C0.5 5.37258 5.87258 0 12.5 0H30.5C37.1274 0 42.5 5.37258 42.5 12V30C42.5 36.6274 37.1274 42 30.5 42H12.5C5.87258 42 0.5 36.6274 0.5 30V12Z" fill="white"/>
</clipPath>
</defs>
</svg>
