<svg width="42" height="42" viewBox="0 0 42 42" fill="none" xmlns="http://www.w3.org/2000/svg">
<g clip-path="url(#clip0)">
<path d="M0 12C0 5.37258 5.37258 0 12 0H30C36.6274 0 42 5.37258 42 12V30C42 36.6274 36.6274 42 30 42H12C5.37258 42 0 36.6274 0 30V12Z" fill="#1A2151"/>
<path d="M-4 15L7.0796 10.3114C7.55197 10.1115 8.0831 10.1007 8.56318 10.2813L20.3599 14.7187C20.84 14.8993 21.3711 14.8885 21.8435 14.6886L32.1178 10.3408C32.6312 10.1235 33.212 10.1304 33.7201 10.3598L44 15" stroke="white" stroke-width="4"/>
<path d="M-4 23L7.0796 18.3114C7.55197 18.1115 8.0831 18.1007 8.56318 18.2813L20.3599 22.7187C20.84 22.8993 21.3711 22.8885 21.8435 22.6886L32.1178 18.3408C32.6312 18.1235 33.212 18.1304 33.7201 18.3598L44 23" stroke="white" stroke-width="4"/>
<path d="M-4 31L7.0796 26.3114C7.55197 26.1115 8.0831 26.1007 8.56318 26.2813L20.3599 30.7187C20.84 30.8993 21.3711 30.8885 21.8435 30.6886L32.1178 26.3408C32.6312 26.1235 33.212 26.1304 33.7201 26.3598L44 31" stroke="white" stroke-width="4"/>
<path d="M-4 39L7.0796 34.3114C7.55197 34.1115 8.0831 34.1007 8.56318 34.2813L20.3599 38.7187C20.84 38.8993 21.3711 38.8885 21.8435 38.6886L32.1178 34.3408C32.6312 34.1235 33.212 34.1304 33.7201 34.3598L44 39" stroke="url(#paint0_linear)" stroke-width="4"/>
</g>
<defs>
<linearGradient id="paint0_linear" x1="31.1004" y1="34.8364" x2="30.7545" y2="40.6622" gradientUnits="userSpaceOnUse">
<stop stop-color="#40C9FF"/>
<stop offset="1" stop-color="#E81CFF"/>
</linearGradient>
<clipPath id="clip0">
<path d="M0 12C0 5.37258 5.37258 0 12 0H30C36.6274 0 42 5.37258 42 12V30C42 36.6274 36.6274 42 30 42H12C5.37258 42 0 36.6274 0 30V12Z" fill="white"/>
</clipPath>
</defs>
</svg>
