<svg width="44" height="44" viewBox="0 0 44 44" fill="none" xmlns="http://www.w3.org/2000/svg">
<circle cx="22" cy="22" r="22" fill="#1A2151"/>
<path fill-rule="evenodd" clip-rule="evenodd" d="M17 6C17 4.89543 17.8954 4 19 4C20.1046 4 21 4.89543 21 6V15.8487L26.4138 12.912C27.2194 12.475 27.8622 11.7893 28.2462 10.9572L30.4111 6.26665C30.8161 5.38911 31.8558 5.00605 32.7334 5.41107C33.6109 5.81609 33.9939 6.85581 33.5889 7.73335L31.4241 12.4239C30.7237 13.9413 29.5517 15.1916 28.0827 15.9885L24.1258 18.1349L30.2719 22.6795C32.1587 24.0746 33.3117 26.2496 33.4076 28.5942L33.7485 36.9285C33.788 37.8942 33.0372 38.709 32.0715 38.7485C31.1058 38.788 30.291 38.0372 30.2515 37.0715L29.9106 28.7372C29.858 27.4515 29.2256 26.2588 28.1909 25.4937L21 20.1765V37C21 38.1046 20.1046 39 19 39C17.8954 39 17 38.1046 17 37V6ZM10 25C10 23.8954 10.8954 23 12 23C13.1046 23 14 23.8954 14 25V37C14 38.1046 13.1046 39 12 39C10.8954 39 10 38.1046 10 37V25ZM12 21C13.1046 21 14 20.1046 14 19C14 17.8954 13.1046 17 12 17C10.8954 17 10 17.8954 10 19C10 20.1046 10.8954 21 12 21Z" fill="url(#paint0_linear)"/>
<defs>
<linearGradient id="paint0_linear" x1="27.3677" y1="9.85502" x2="7.21287" y2="33.8493" gradientUnits="userSpaceOnUse">
<stop stop-color="#40C9FF"/>
<stop offset="1" stop-color="#E81CFF"/>
</linearGradient>
</defs>
</svg>
