<svg width="33" height="32" viewBox="0 0 33 32" fill="none" xmlns="http://www.w3.org/2000/svg">
<path d="M13.0412 21.999H9.5C7.9087 21.999 6.38258 21.3669 5.25736 20.2417C4.13214 19.1164 3.5 17.5903 3.5 15.999C3.5 14.4077 4.13214 12.8816 5.25736 11.7564C6.38258 10.6312 7.9087 9.99902 9.5 9.99902H12.9631" stroke="white" stroke-width="3" stroke-linecap="round" stroke-linejoin="round"/>
<path d="M20.0369 9.99902H23.5C25.0913 9.99902 26.6174 10.6312 27.7426 11.7564C28.8678 12.8816 29.5 14.4077 29.5 15.999C29.5 17.5903 28.8678 19.1164 27.7426 20.2417C26.6174 21.3669 25.0913 21.999 23.5 21.999H19.9587" stroke="white" stroke-width="3" stroke-linecap="round" stroke-linejoin="round"/>
<path d="M11.0669 15.9983H22.0581" stroke="white" stroke-width="3" stroke-linecap="round" stroke-linejoin="round"/>
</svg>
