<svg width="29" height="28" viewBox="0 0 29 28" fill="none" xmlns="http://www.w3.org/2000/svg">
<path d="M26.2609 0.000854492H2.89274C1.61587 0.000854492 0.500244 0.919604 0.500244 2.18148V25.6015C0.500244 26.8702 1.61587 28.0008 2.89274 28.0008H26.254C27.5377 28.0008 28.5002 26.8627 28.5002 25.6015V2.18148C28.5077 0.919604 27.5377 0.000854492 26.2609 0.000854492ZM9.17962 23.3402H5.16837V10.8684H9.17962V23.3402ZM7.31274 8.9721H7.28399C6.00024 8.9721 5.16899 8.01648 5.16899 6.82023C5.16899 5.6021 6.02212 4.66898 7.33462 4.66898C8.64712 4.66898 9.45024 5.59523 9.47899 6.82023C9.47837 8.01648 8.64712 8.9721 7.31274 8.9721ZM23.8396 23.3402H19.8284V16.5208C19.8284 14.8871 19.2446 13.7709 17.7934 13.7709C16.6846 13.7709 16.0284 14.5209 15.7365 15.2515C15.6271 15.514 15.5977 15.8715 15.5977 16.2365V23.3402H11.5865V10.8684H15.5977V12.604C16.1815 11.7727 17.0934 10.5765 19.2152 10.5765C21.8484 10.5765 23.8402 12.3121 23.8402 16.054L23.8396 23.3402Z" fill="white"/>
</svg>
