<svg width="42" height="42" viewBox="0 0 42 42" fill="none" xmlns="http://www.w3.org/2000/svg">
<path d="M0 12C0 5.37258 5.37258 0 12 0H30C36.6274 0 42 5.37258 42 12V30C42 36.6274 36.6274 42 30 42H12C5.37258 42 0 36.6274 0 30V12Z" fill="#1A2151"/>
<rect x="8" y="5" width="26" height="5" rx="2.5" fill="white"/>
<rect x="8" y="31" width="26" height="5" rx="2.5" fill="url(#paint0_linear)"/>
<rect x="13" y="11" width="19" height="5" rx="2.5" transform="rotate(90 13 11)" fill="white"/>
<rect x="34" y="11" width="19" height="5" rx="2.5" transform="rotate(90 34 11)" fill="white"/>
<defs>
<linearGradient id="paint0_linear" x1="27.0127" y1="31.8364" x2="26.3795" y2="37.6133" gradientUnits="userSpaceOnUse">
<stop stop-color="#40C9FF"/>
<stop offset="1" stop-color="#E81CFF"/>
</linearGradient>
</defs>
</svg>
