<svg width="33" height="32" viewBox="0 0 33 32" fill="none" xmlns="http://www.w3.org/2000/svg">
<path d="M31.8335 6.84376C30.7081 7.33273 29.5175 7.65487 28.2991 7.80001C29.5795 7.05025 30.5424 5.85911 31.0072 4.45001C29.7967 5.15788 28.4745 5.65455 27.0972 5.91876C26.5173 5.31097 25.8198 4.82745 25.0472 4.4976C24.2746 4.16775 23.443 3.99846 22.6029 4.00001C19.2016 4.00001 16.4491 6.71251 16.4491 10.0563C16.4467 10.5214 16.5 10.9851 16.6079 11.4375C14.1689 11.3232 11.7807 10.701 9.59598 9.61079C7.41127 8.52059 5.47817 6.98636 3.92037 5.10626C3.37385 6.02758 3.08483 7.07879 3.0835 8.15001C3.0835 10.25 4.17912 12.1063 5.8335 13.1938C4.85333 13.1705 3.89324 12.9111 3.03475 12.4375V12.5125C3.03475 15.45 5.15975 17.8938 7.97224 18.45C7.44336 18.591 6.89835 18.6624 6.351 18.6625C5.96261 18.6632 5.5751 18.6255 5.19412 18.55C5.976 20.9563 8.25162 22.7063 10.9472 22.7563C8.75686 24.4443 6.06763 25.3567 3.30225 25.35C2.81138 25.3493 2.32097 25.3201 1.8335 25.2625C4.64673 27.0589 7.9169 28.0091 11.2547 28C22.5897 28 28.7822 18.7688 28.7822 10.7625C28.7822 10.5 28.7754 10.2375 28.7629 9.98126C29.9648 9.1263 31.0046 8.06383 31.8335 6.84376Z" fill="white"/>
</svg>
